<svg height="42" viewBox="0 0 42 42" width="42" xmlns="http://www.w3.org/2000/svg"><g fill="none" fill-rule="evenodd"><path d="m21 0c.7635388 0 1.5175601.04074917 2.2600079.1201914l-.6887405 5.82082572c-.5164962-.05325887-1.0406945-.080552-1.5712674-.080552-8.3613342 0-15.13953488 6.77820068-15.13953488 15.13953488s6.77820068 15.1395349 15.13953488 15.1395349c8.0207476 0 14.5847081-6.2372471 15.1061464-14.1260064l5.8902906-1.4043037c.0023719.1299733.003563.2602352.003563.3907752 0 11.5979797-9.4020203 21-21 21-11.59797975 0-21-9.4020203-21-21 0-11.59797975 9.40202025-21 21-21z" fill="#343438"/><g transform="translate(12 13)"><path d="m0 0h17.6v17.6h-17.6z"/><path d="m9.53333333 2.2v5.13333333h4.39999997l-5.86666663 8.06666667v-5.1333333h-4.4z" stroke="#3483fa" stroke-linecap="round" stroke-linejoin="round" stroke-width="1.1"/></g></g></svg>